<svg xmlns="http://www.w3.org/2000/svg" xmlns:xlink="http://www.w3.org/1999/xlink" style="display:none"><symbol id="check" viewBox="0 0 26 17"><path d="M25.404.888a1.91 1.91 0 0 0-.602-.336 2.184 2.184 0 0 0-1.423 0 1.91 1.91 0 0 0-.602.336L8.995 12.338l-5.79-4.82a1.97 1.97 0 0 0-.621-.33 2.238 2.238 0 0 0-1.447.02c-.228.082-.434.2-.606.349a1.57 1.57 0 0 0-.4.514 1.335 1.335 0 0 0 .026 1.2 1.6 1.6 0 0 0 .42.503l7.104 5.894c.172.144.377.258.602.336a2.184 2.184 0 0 0 1.423 0 1.91 1.91 0 0 0 .602-.336L25.404 3.144c.188-.144.338-.318.44-.512.103-.194.156-.404.156-.616 0-.212-.053-.422-.155-.616a1.577 1.577 0 0 0-.44-.512z"/></symbol><symbol id="check_contact" viewBox="0 0 11 9"><path d="M1.913 4.035a.525.525 0 0 1 .412.2l-.412-.2zm0 0h-.82a.243.243 0 0 0-.19.394l3.21 4.067c.21.266.613.265.824 0l5.723-7.252A.243.243 0 0 0 10.47.85h-.82a.523.523 0 0 0-.411.2L4.523 7.023m-2.61-2.987l2.61 2.987m0 0L2.325 4.235l2.199 2.787z" stroke="#fff" stroke-width=".3"/></symbol><symbol id="download" viewBox="0 0 24 24"><path d="M12 0C5.373 0 0 5.373 0 12s5.373 12 12 12 12-5.373 12-12S18.627 0 12 0zm2.78 12.53l-3.375 3.375a.747.747 0 0 1-.53.22c-.662 0-1.004-.806-.53-1.28L13.189 12l-2.844-2.845a.75.75 0 1 1 1.06-1.06l3.375 3.375a.75.75 0 0 1 0 1.06z"/></symbol><symbol id="logo" viewBox="0 0 354 70"><path d="M215.912 57.228a3.334 3.334 0 0 1-1.525-.372l-7.329-3.771a9 9 0 0 0-4.102-.99h-21.02a5.325 5.325 0 0 1-3.714-1.506 5.077 5.077 0 0 1-1.54-3.627V23.777a4.868 4.868 0 0 1 1.478-3.48 5.109 5.109 0 0 1 3.563-1.443h155.774a5.325 5.325 0 0 1 3.714 1.506 5.077 5.077 0 0 1 1.54 3.627v22.975a5.077 5.077 0 0 1-1.54 3.627 5.325 5.325 0 0 1-3.714 1.506H219.182v1.934a3.164 3.164 0 0 1-.959 2.259c-.612.6-1.443.937-2.311.94zm-34.189-35.826c-.644 0-1.261.25-1.716.695a2.34 2.34 0 0 0-.712 1.676v23.189c.001.683.28 1.34.775 1.823a2.68 2.68 0 0 0 1.866.758h21.02c1.855 0 3.682.441 5.325 1.283l7.329 3.77a.668.668 0 0 0 .878-.251.628.628 0 0 0 .085-.316v-2.662c0-.484.198-.948.548-1.29a1.894 1.894 0 0 1 1.322-.534h119.062a2.68 2.68 0 0 0 1.867-.758c.495-.484.773-1.14.774-1.823V23.987a2.554 2.554 0 0 0-.774-1.823 2.68 2.68 0 0 0-1.867-.758l-155.782-.004z"/><path d="M216.511 30.298c.381 0 1.34.495 1.821.742 2.526 1.284 2.722 1.627 2.722 2.151 0 .456-.492 1.281-1.171 1.281-.267 0-.465-.054-1.065-.468-.852-.578-2.032-1.212-2.584-1.502-.381-.193-.852-.428-.852-1.006.011-.253.097-.497.249-.703.151-.205.361-.363.603-.453.091-.023.183-.037.277-.042zm10.922 2.369c0 .649-.958 3.294-2.694 5.237-1.877 2.094-4.047 2.827-5.406 3.197-.79.208-1.917.455-2.428.455-.916 0-1.142-.798-1.142-1.28 0-.833.507-.993 1.255-1.09 3.621-.454 6.436-1.806 8.072-6.38.311-.882.411-1.158 1.046-1.158.128.004.256.018.381.041.409.113.916.346.916.978zM197.825 30.6h-8.664c-.326 0-1.129.028-1.129 1.104 0 1.075.852 1.073 1.129 1.073h6.737a.434.434 0 0 0 .268-.097.417.417 0 0 0 .145-.24l.108-.6a.337.337 0 0 1 .594-.148.316.316 0 0 1 .06.25s-.377 2.461-.956 3.632c-.888 1.82-2.807 3.185-5.489 3.902-.664.18-1.171.33-1.171.992 0 .343.198 1.248 1.101 1.248.49-.033.974-.13 1.438-.289 1.848-.566 4.066-1.695 5.589-3.873 1.735-2.508 1.836-5.457 1.836-5.526 0-.518-.03-1.429-1.596-1.429zM203.442 32.336h7.904c.296 0 1.065-.012 1.065-1.04 0-1.027-.82-1.019-1.065-1.019h-7.904c-.281 0-1.044.015-1.044 1.04 0 1.026.805 1.02 1.044 1.02zM211.712 33.674h-9.342c-.509 0-1.065.193-1.065 1.04 0 1.006.833 1.006 1.065 1.006h7.327a.414.414 0 0 0 .234-.072.397.397 0 0 0 .148-.19l.213-.59a.331.331 0 0 1 .161-.182.347.347 0 0 1 .245-.026.33.33 0 0 1 .198.163.32.32 0 0 1 .015.253s-.607 1.688-.835 2.06c-1.241 2.11-3.669 2.44-5.701 2.715-.409.056-1.031.152-1.031.953.005.282.098.555.268.784a1.124 1.124 0 0 0 .918.36c.015 0 2.682-.11 4.939-1.365 3.195-1.778 3.643-5.21 3.643-5.636.012-1.065-.722-1.273-1.4-1.273zM262.362 36.037a.91.91 0 0 0-.369.33.882.882 0 0 0-.136.47v4.044c0 .786.452 1.063 1.214 1.063 1.031 0 1.186-.566 1.186-1.076v-4.846a.553.553 0 0 0-.274-.48.591.591 0 0 0-.563-.025l-1.058.52zM267.022 29.566c-.141 0-.366.03-.733.318-1.891 1.558-2.343 1.93-3.98 2.798a26.517 26.517 0 0 1-5.364 2.08c-.426.122-.852.26-.852.921 0 .401.213 1.248 1.102 1.248.639 0 2.342-.576 3.955-1.263a7.92 7.92 0 0 0 .569-.266l2.272-1.152c.198-.1.39-.208.579-.32 1.89-1.138 2.742-1.818 3.251-2.263.381-.331.494-.579.494-.882.006-.666-.671-1.219-1.293-1.219zM276.756 38.155s1.327-1.584 1.322-1.589c1.327-1.832 2.203-3.87 2.203-4.767 0-1.212-1.065-1.281-1.666-1.281h-6.858c-.692 0-1.116.343-1.116 1.06 0 .993.805 1.04 1.116 1.04h5.448c.126 0 .339 0 .339.182 0 .343-1.704 4.409-6.211 6.807-.931.495-1.144.605-1.144 1.117 0 .624.509 1.213 1.089 1.213.747 0 3.075-1.296 5.476-3.792l.002.01zM280.387 30.739c.028.096.171.564.198.674a.414.414 0 0 0 .158.258.431.431 0 0 0 .294.087.508.508 0 0 0 .384-.122.48.48 0 0 0 .165-.36 4.937 4.937 0 0 0-.366-1.309c-.155-.36-.296-.538-.55-.538-.112 0-.551.068-.551.44a.933.933 0 0 0 .042.263c.028.097.184.51.226.607zM281.461 39.269c-.874-.778-1.37-1.152-2.079-1.691a.725.725 0 0 0-.986.104l-.482.57a.735.735 0 0 0 .066 1.013c.671.624 1.266 1.183 1.87 1.85.369.427.639.718 1.159.718.341-.005.666-.137.91-.369.244-.232.388-.546.402-.878 0-.49-.241-.766-.86-1.317zM282.871 29.93c-.156-.385-.269-.593-.565-.593-.098 0-.564.042-.564.443.001.08.015.158.042.233.043.098.199.524.226.624.296.953.324 1.021.663 1.021a.498.498 0 0 0 .496-.287.456.456 0 0 0 .04-.195 4.429 4.429 0 0 0-.338-1.246zM252.628 33.632l-3.834.318-.14-1.352c-.043-.384-.156-.923-1.004-.923-.915 0-1.184.51-1.113 1.144l.14 1.31-1.704.152c-.426.027-.973.164-.973.963a1.036 1.036 0 0 0 .381.87 1.051 1.051 0 0 0 .803.151l1.681-.166.506 4.88c.043.415.199.964 1.046.964 1.157 0 1.114-.87 1.087-1.158l-.51-4.907 1.804-.18a.49.49 0 0 0 .401-.29l.236-.534a.342.342 0 0 1 .62-.013.315.315 0 0 1 .002.256s-.368 1.219-1.205 1.893c-.618.497-.776.661-.776 1.04 0 .538.55.994 1.087.994 1.199 0 3.09-2.704 3.09-4.245.011-1-.639-1.25-1.625-1.167zM320.323 30.683c.381 0 1.34.497 1.821.744 2.526 1.281 2.724 1.627 2.724 2.15 0 .454-.494 1.282-1.171 1.282-.268 0-.467-.056-1.065-.468-.852-.58-2.032-1.213-2.584-1.504-.379-.191-.852-.426-.852-1.004.011-.254.098-.498.249-.704a1.33 1.33 0 0 1 .603-.455c.09-.022.182-.036.275-.041zm10.922 2.37c0 .647-.958 3.293-2.694 5.238-1.876 2.094-4.047 2.824-5.406 3.197-.79.208-1.917.455-2.428.455-.916 0-1.141-.8-1.141-1.283 0-.832.506-.992 1.254-1.088 3.621-.456 6.437-1.805 8.075-6.381.308-.882.409-1.157 1.043-1.157.128.004.256.017.382.04.408.11.915.351.915.975v.005zM293.001 29.911c-.904 0-1.114.497-1.114 1.02v1.42h-1.144c-.692 0-1.114.316-1.114 1.04 0 .963.79 1.019 1.114 1.019h1.135v2.357c0 .923.639 1.019 1.172 1.019.76 0 1.065-.385 1.065-1.02v-5.844c.014-.749-.422-1.01-1.114-1.01zM301.582 32.35c-.13 0-.256.051-.348.141a.476.476 0 0 0-.144.34v1.106a.48.48 0 0 0 .145.34.5.5 0 0 0 .347.14c.677 0 1.116-.317 1.116-1.039 0-.973-.809-1.028-1.116-1.028z"/><path d="M300.17 30.918c0-.772-.426-1.02-1.144-1.02-.916 0-1.114.481-1.114 1.02v1.433h-2.13c-.204 0-.4.079-.545.22a.743.743 0 0 0-.226.533v.57c0 .2.081.39.226.532.145.141.341.22.545.22h2.13v1.406c0 1.365-.268 2.026-.639 2.453-.988 1.144-2.539 1.391-3.621 1.557-.351.055-.988.18-.988.897 0 .191.085 1.212 1.144 1.212.607 0 1.962-.276 3.195-.842 2.824-1.281 3.175-3.39 3.175-5.25l-.008-4.941z"/><path d="M315.492 31.365l-4.259-1.04a.337.337 0 0 0-.092-.012h-5.142a.936.936 0 0 0-.65.263.893.893 0 0 0-.27.635v8.615a.91.91 0 0 0 .276.648.954.954 0 0 0 .664.27h5.024c.035 0 .07.005.104.014l4.113 1.162a.822.822 0 0 0 .706-.119.79.79 0 0 0 .327-.621v-8.875c-.01-.343-.46-.853-.801-.94zm-5.884 7.396a.428.428 0 0 1-.274.398.451.451 0 0 1-.169.033h-2.084a.45.45 0 0 1-.312-.126.426.426 0 0 1-.128-.305v-6.483c0-.114.046-.224.129-.304a.445.445 0 0 1 .311-.126h2.084c.117 0 .229.045.312.126.083.08.13.19.131.304v6.483zm5.273-1.49a.694.694 0 0 1-.706-.324.653.653 0 0 1 .07-.76.697.697 0 0 1 1.079.046c.08.112.124.245.124.382a.606.606 0 0 1-.146.441.633.633 0 0 1-.421.216z"/><path d="M241.167 34.404h-2.068a.629.629 0 0 0-.437.175.6.6 0 0 0-.185.424l-.013.832a.603.603 0 0 0 .38.576.639.639 0 0 0 .242.048h2.081c.268 0 1.029-.015 1.029-1.04 0-1.026-.797-1.015-1.029-1.015zM234.434 35.858l.013-.85a.59.59 0 0 0-.374-.558.615.615 0 0 0-.235-.046h-3.016c-.283 0-1.044 0-1.044 1.02 0 1.022.79 1.02 1.044 1.02h3.003c.16 0 .314-.062.428-.171a.587.587 0 0 0 .181-.416z"/><path d="M235.961 33.522a.66.66 0 0 0-.433.202.633.633 0 0 0-.176.436l-.042 2.288c-.141 1.833-.989 2.77-3.713 3.376-.451.11-1.001.262-1.001.896 0 .069.028 1.227 1.129 1.227.55 0 1.849-.303 3.02-.923 2.484-1.323 2.71-3.447 2.822-4.576l.043-2.377a.624.624 0 0 0-.224-.48.656.656 0 0 0-.517-.154c-.266.029-.582.062-.908.085zM239.797 30.09c-.198 0-.639.097-1.736.33-2.074.456-5.165.635-6.251.65-.579.012-1.201.068-1.201.923 0 1.06.863 1.06 1.214 1.06a33.465 33.465 0 0 0 3.529-.22l2.258-.262c.281-.042 1.904-.262 2.483-.441.339-.11.735-.248.735-.924 0-.316-.17-1.116-1.031-1.116z"/><path d="M155.024 39.872l5.952 5.952 2.04-2.04-5.952-5.952 5.952-5.952-2.04-2.04-5.952 5.952-5.952-5.952-2.04 2.04 5.952 5.952-5.952 5.952 2.04 2.04 5.952-5.952z"/><mask maskUnits="userSpaceOnUse" x="0" y="0" width="146" height="70"><path d="M0 0h146v70H0z"/></mask><g mask="url(#a)"><path d="M0-35h146v146H0z"/></g></symbol><symbol id="swiper_arrow" viewBox="0 0 24 119"><path d="M0 4a4 4 0 0 1 4-4h20v119H4a4 4 0 0 1-4-4V4z" fill-opacity=".37"/><path d="M10.9 51.65c-.867-.867-2.167-.867-3.033 0-.867.867-.867 2.167 0 3.033l4.766 4.984L7.65 64.65c-.433.433-.65.867-.65 1.517 0 1.3.867 2.166 2.167 2.166.65 0 1.083-.216 1.516-.65l6.5-6.5c.867-.866.867-2.166 0-3.033l-6.283-6.5z"/></symbol></svg>