<svg width="26" height="17" viewBox="0 0 26 17" fill="none" xmlns="http://www.w3.org/2000/svg">
<path d="M25.4044 0.887836C25.2324 0.74398 25.0278 0.629797 24.8024 0.551876C24.5769 0.473955 24.3351 0.433838 24.0909 0.433838C23.8467 0.433838 23.6049 0.473955 23.3794 0.551876C23.154 0.629797 22.9494 0.74398 22.7774 0.887836L8.99468 12.3376L3.2041 7.51828C3.02553 7.37517 2.81474 7.26265 2.58375 7.18713C2.35277 7.11161 2.10612 7.07457 1.85788 7.07814C1.60964 7.0817 1.36468 7.12579 1.13698 7.20789C0.909284 7.29 0.703308 7.4085 0.530814 7.55665C0.35832 7.70479 0.222687 7.87967 0.131659 8.0713C0.0406301 8.26293 -0.00401187 8.46756 0.000282903 8.67351C0.00457768 8.87945 0.0577249 9.08267 0.156689 9.27158C0.255654 9.46048 0.398497 9.63136 0.577065 9.77447L7.68117 15.6682C7.85315 15.8121 8.05777 15.9262 8.28321 16.0042C8.50865 16.0821 8.75046 16.1222 8.99468 16.1222C9.23891 16.1222 9.48072 16.0821 9.70616 16.0042C9.9316 15.9262 10.1362 15.8121 10.3082 15.6682L25.4044 3.14403C25.5922 3.0003 25.7421 2.82587 25.8446 2.63171C25.9471 2.43756 26 2.22789 26 2.01593C26 1.80397 25.9471 1.59431 25.8446 1.40015C25.7421 1.206 25.5922 1.03156 25.4044 0.887836Z" fill="white"/>
</svg>
