<svg width="24" height="24" viewBox="0 0 24 24" fill="none" xmlns="http://www.w3.org/2000/svg">
<path d="M12 0C5.37258 0 0 5.37258 0 12C0 18.6274 5.37258 24 12 24C18.6274 24 24 18.6274 24 12C24 5.37258 18.6274 0 12 0ZM14.7803 12.5303L11.4053 15.9053C11.2589 16.0518 11.0669 16.125 10.875 16.125C10.2128 16.125 9.87089 15.3185 10.3447 14.8447L13.1894 12L10.3447 9.15534C10.0518 8.86247 10.0518 8.38758 10.3447 8.0947C10.6376 7.80183 11.1125 7.80183 11.4053 8.0947L14.7803 11.4697C15.0732 11.7626 15.0732 12.2375 14.7803 12.5303Z" fill="#FFE900"/>
</svg>
