<svg width="188" height="50" viewBox="0 0 188 50" fill="none" xmlns="http://www.w3.org/2000/svg">
<path d="M49.9124 44.228C49.3806 44.2269 48.8572 44.0991 48.3874 43.8557L41.0584 40.0849C39.7932 39.4355 38.3855 39.0958 36.9562 39.0948H15.936C14.5426 39.0932 13.2067 38.5518 12.2216 37.5894C11.2365 36.6271 10.6826 35.3224 10.6815 33.9617V10.7772C10.6832 9.47201 11.2149 8.22076 12.16 7.29786C13.1051 6.37496 14.3864 5.85575 15.723 5.8541H171.497C172.89 5.85575 174.226 6.39716 175.211 7.35951C176.196 8.32187 176.75 9.62655 176.751 10.9873V33.9617C176.75 35.3224 176.196 36.6271 175.211 37.5894C174.226 38.5518 172.89 39.0932 171.497 39.0948H53.1819V41.0291C53.1807 41.8761 52.8361 42.6882 52.2234 43.2877C51.6107 43.8871 50.7798 44.2252 49.9124 44.228ZM15.723 8.40196C15.0792 8.40251 14.4619 8.65249 14.0067 9.09704C13.5515 9.54158 13.2955 10.1443 13.2949 10.773V33.9617C13.296 34.6455 13.5746 35.3011 14.0696 35.7849C14.5646 36.2686 15.2357 36.5412 15.936 36.5428H36.9562C38.8113 36.5437 40.6384 36.9841 42.2809 37.8261L49.61 41.5969C49.7101 41.6486 49.8222 41.6741 49.9353 41.671C50.0485 41.6679 50.1589 41.6362 50.2559 41.579C50.3528 41.5218 50.4329 41.4412 50.4884 41.3448C50.5439 41.2484 50.573 41.1397 50.5727 41.0291V38.3669C50.5733 37.8829 50.7705 37.419 51.1212 37.0769C51.4718 36.7349 51.9472 36.5428 52.4428 36.5428H171.505C172.205 36.5412 172.877 36.2686 173.372 35.7849C173.867 35.3011 174.145 34.6455 174.146 33.9617V10.9873C174.145 10.3034 173.867 9.64782 173.372 9.16406C172.877 8.6803 172.205 8.40776 171.505 8.40611L15.723 8.40196Z" fill="#212B2B"/>
<path d="M50.5109 17.2979C50.8922 17.2979 51.8506 17.7929 52.332 18.0404C54.8581 19.3237 55.054 19.6668 55.054 20.191C55.054 20.6465 54.562 21.4722 53.8826 21.4722C53.6164 21.4722 53.4183 21.4181 52.8176 21.0042C51.9657 20.426 50.7857 19.7916 50.234 19.5025C49.8528 19.3091 49.3821 19.0741 49.3821 18.4959C49.3929 18.2429 49.4793 17.9986 49.6307 17.7931C49.7821 17.5876 49.9919 17.4299 50.234 17.3395C50.3247 17.3169 50.4175 17.3029 50.5109 17.2979ZM61.4332 19.6668C61.4332 20.3158 60.4747 22.9614 58.7388 24.904C56.8624 26.9984 54.692 27.7306 53.3331 28.1008C52.5429 28.3088 51.4162 28.5563 50.905 28.5563C49.9891 28.5563 49.7633 27.7576 49.7633 27.2751C49.7633 26.4431 50.2703 26.283 51.0179 26.1852C54.6387 25.7318 57.4545 24.3799 59.0903 19.8062C59.4012 18.9243 59.5013 18.6477 60.136 18.6477C60.264 18.6518 60.3915 18.6657 60.5173 18.6893C60.9262 18.8016 61.4332 19.0346 61.4332 19.6668Z" fill="#212B2B"/>
<path d="M31.8253 17.5992H23.1607C22.8349 17.5992 22.0319 17.6284 22.0319 18.7037C22.0319 19.779 22.8839 19.7769 23.1607 19.7769H29.8977C29.9957 19.7758 30.0904 19.7416 30.1657 19.6802C30.241 19.6188 30.2923 19.534 30.3109 19.4399L30.4195 18.8409C30.4336 18.7586 30.4789 18.6845 30.5464 18.6333C30.6138 18.582 30.6986 18.5574 30.7837 18.5643C30.8289 18.569 30.8726 18.5828 30.912 18.6047C30.9515 18.6267 30.9859 18.6564 31.0131 18.6919C31.0403 18.7274 31.0597 18.768 31.0701 18.8112C31.0804 18.8544 31.0816 18.8992 31.0734 18.9428C31.0734 18.9428 30.6964 21.4034 30.1171 22.5743C29.2289 24.3942 27.3098 25.7586 24.6283 26.4762C23.9637 26.6551 23.4568 26.8069 23.4568 27.4683C23.4568 27.8115 23.6549 28.7162 24.558 28.7162C25.0483 28.6829 25.5318 28.5857 25.9957 28.4271C27.8444 27.8614 30.0617 26.732 31.5846 24.5544C33.3205 22.046 33.4206 19.0968 33.4206 19.0281C33.4206 18.5102 33.3907 17.5992 31.8253 17.5992Z" fill="#212B2B"/>
<path d="M37.4418 19.3363H45.3459C45.642 19.3363 46.4109 19.3238 46.4109 18.2963C46.4109 17.2689 45.5909 17.2772 45.3459 17.2772H37.4418C37.1607 17.2772 36.3982 17.2918 36.3982 18.3171C36.3982 19.3425 37.2033 19.3363 37.4418 19.3363Z" fill="#212B2B"/>
<path d="M45.7123 20.6738H36.3704C35.8614 20.6738 35.3055 20.8672 35.3055 21.7137C35.3055 22.7204 36.1383 22.7204 36.3704 22.7204H43.6974C43.7808 22.7204 43.8623 22.6953 43.9305 22.6484C43.9988 22.6015 44.0505 22.5351 44.0786 22.4583L44.2916 21.8677C44.3203 21.7894 44.378 21.7246 44.4534 21.686C44.5288 21.6475 44.6163 21.6381 44.6984 21.6597C44.7409 21.6726 44.7803 21.6937 44.8142 21.7218C44.8481 21.75 44.8758 21.7845 44.8957 21.8233C44.9156 21.8622 44.9272 21.9046 44.9299 21.9479C44.9326 21.9913 44.9263 22.0347 44.9114 22.0756C44.9114 22.0756 44.3044 23.7645 44.0765 24.1368C42.8347 26.2458 40.4066 26.5765 38.3747 26.8511C37.9657 26.9072 37.3438 27.0029 37.3438 27.8036C37.3488 28.0857 37.4425 28.3595 37.6122 28.5878C37.726 28.7134 37.8682 28.8113 38.0276 28.8738C38.1869 28.9362 38.359 28.9615 38.5302 28.9476C38.5451 28.9476 41.2118 28.8374 43.4695 27.5832C46.6643 25.8049 47.1116 22.3731 47.1116 21.9467C47.1244 20.8818 46.3896 20.6738 45.7123 20.6738Z" fill="#212B2B"/>
<path d="M96.3618 23.0366C96.21 23.1113 96.0824 23.2258 95.9933 23.3672C95.9041 23.5086 95.857 23.6713 95.857 23.8374V27.8807C95.857 28.6669 96.3086 28.9435 97.0711 28.9435C98.1019 28.9435 98.2574 28.3778 98.2574 27.8682V23.0221C98.2572 22.9259 98.2319 22.8313 98.1838 22.7473C98.1358 22.6634 98.0666 22.5927 97.9828 22.5421C97.899 22.4915 97.8034 22.4626 97.7049 22.4582C97.6065 22.4537 97.5086 22.4738 97.4204 22.5166L96.3618 23.0366Z" fill="#212B2B"/>
<path d="M101.022 16.566C100.881 16.566 100.656 16.5952 100.289 16.8843C98.3979 18.4421 97.9464 18.8144 96.3085 19.6817C94.6049 20.5662 92.8062 21.2638 90.9453 21.7616C90.5193 21.8843 90.0934 22.0216 90.0934 22.683C90.0934 23.0844 90.3064 23.9309 91.1945 23.9309C91.8335 23.9309 93.5374 23.3548 95.1498 22.6684C95.3436 22.5873 95.5332 22.4979 95.7185 22.4022L97.9911 21.2499C98.1892 21.1501 98.3809 21.042 98.5704 20.9296C100.46 19.7919 101.312 19.1118 101.821 18.6667C102.202 18.336 102.315 18.0885 102.315 17.7849C102.321 17.1193 101.644 16.566 101.022 16.566Z" fill="#212B2B"/>
<path d="M110.756 25.1553C110.756 25.1553 112.083 23.5705 112.078 23.5663C113.405 21.7339 114.281 19.6956 114.281 18.7992C114.281 17.5866 113.216 17.518 112.615 17.518H105.757C105.065 17.518 104.641 17.8612 104.641 18.5787C104.641 19.5709 105.446 19.6187 105.757 19.6187H111.205C111.331 19.6187 111.544 19.6187 111.544 19.7996C111.544 20.1428 109.84 24.209 105.333 26.6071C104.402 27.1021 104.189 27.2124 104.189 27.724C104.189 28.348 104.698 28.9366 105.278 28.9366C106.025 28.9366 108.353 27.6408 110.754 25.145L110.756 25.1553Z" fill="#212B2B"/>
<path d="M114.387 17.739C114.415 17.8346 114.558 18.3026 114.585 18.4128C114.603 18.5149 114.659 18.6069 114.743 18.6708C114.826 18.7346 114.931 18.7658 115.037 18.7581C115.106 18.7651 115.176 18.7578 115.242 18.7367C115.308 18.7157 115.369 18.6813 115.421 18.6359C115.473 18.5904 115.514 18.5349 115.543 18.4728C115.571 18.4107 115.586 18.3436 115.586 18.2756C115.525 17.8253 115.402 17.3853 115.22 16.9673C115.065 16.6075 114.924 16.4286 114.67 16.4286C114.558 16.4286 114.119 16.4973 114.119 16.8696C114.12 16.9584 114.135 17.0466 114.161 17.1316C114.189 17.2294 114.345 17.6412 114.387 17.739Z" fill="#212B2B"/>
<path d="M115.461 26.2689C114.587 25.491 114.091 25.1167 113.382 24.578C113.236 24.4665 113.051 24.415 112.867 24.4345C112.683 24.4539 112.514 24.5427 112.396 24.682L111.914 25.2519C111.792 25.3976 111.731 25.5831 111.743 25.771C111.756 25.959 111.84 26.1354 111.98 26.2648C112.651 26.8887 113.246 27.4482 113.85 28.1159C114.219 28.5422 114.489 28.8334 115.009 28.8334C115.35 28.8284 115.675 28.6963 115.919 28.4643C116.163 28.2322 116.307 27.9178 116.321 27.5855C116.321 27.0967 116.081 26.8201 115.461 26.2689Z" fill="#212B2B"/>
<path d="M116.871 16.9298C116.715 16.545 116.602 16.337 116.306 16.337C116.208 16.337 115.742 16.3786 115.742 16.7801C115.743 16.8595 115.757 16.9382 115.784 17.013C115.827 17.1108 115.983 17.5371 116.01 17.637C116.306 18.5896 116.334 18.6582 116.673 18.6582C116.741 18.6646 116.81 18.6569 116.876 18.6355C116.941 18.6141 117.001 18.5795 117.051 18.534C117.102 18.4884 117.142 18.433 117.169 18.3713C117.197 18.3095 117.21 18.2429 117.209 18.1757C117.158 17.7466 117.044 17.327 116.871 16.9298Z" fill="#212B2B"/>
<path d="M86.6281 20.632L82.7942 20.9502L82.6537 19.5983C82.6111 19.2135 82.4982 18.6748 81.6505 18.6748C80.7346 18.6748 80.4662 19.1844 80.5365 19.8188L80.6771 21.1291L78.9732 21.2809C78.5472 21.308 77.9998 21.4452 77.9998 22.2439C77.9898 22.4078 78.0191 22.5717 78.0852 22.7226C78.1514 22.8735 78.2527 23.0073 78.381 23.1133C78.4974 23.1903 78.6286 23.2435 78.7666 23.2696C78.9046 23.2957 79.0466 23.2942 79.184 23.2651L80.8645 23.0988L81.3715 27.9782C81.4141 28.3941 81.5695 28.9432 82.4172 28.9432C83.5738 28.9432 83.5312 28.0738 83.5035 27.7847L82.9945 22.8783L84.7985 22.6973C84.8855 22.6881 84.9684 22.6564 85.0387 22.6056C85.1091 22.5548 85.1644 22.4867 85.1989 22.4082L85.4353 21.8737C85.4677 21.7947 85.5302 21.7311 85.6096 21.6962C85.6891 21.6613 85.7793 21.6578 85.8613 21.6865C85.9041 21.701 85.9433 21.7238 85.9767 21.7537C86.01 21.7836 86.0367 21.8199 86.055 21.8602C86.0734 21.9006 86.0831 21.9442 86.0835 21.9884C86.0839 22.0326 86.075 22.0764 86.0573 22.117C86.0573 22.117 85.6888 23.3359 84.8517 24.0097C84.2341 24.5068 84.0765 24.6711 84.0765 25.0497C84.0765 25.5884 84.626 26.0439 85.1627 26.0439C86.3619 26.0439 88.2532 23.34 88.2532 21.7988C88.2639 20.7984 87.6142 20.5488 86.6281 20.632Z" fill="#212B2B"/>
<path d="M154.323 17.6825C154.704 17.6825 155.663 18.1796 156.144 18.4271C158.67 19.7083 158.868 20.0536 158.868 20.5777C158.868 21.0311 158.374 21.8589 157.697 21.8589C157.429 21.8589 157.23 21.8028 156.632 21.3909C155.78 20.8106 154.6 20.1784 154.048 19.8872C153.669 19.6958 153.196 19.4608 153.196 18.8826C153.207 18.6294 153.294 18.3849 153.445 18.1791C153.597 17.9732 153.806 17.8151 154.048 17.7241C154.138 17.7018 154.23 17.6879 154.323 17.6825ZM165.245 20.0536C165.245 20.7004 164.287 23.346 162.551 25.2907C160.675 27.3852 158.504 28.1152 157.145 28.4875C156.355 28.6955 155.228 28.943 154.717 28.943C153.801 28.943 153.576 28.1422 153.576 27.6597C153.576 26.8278 154.082 26.6676 154.83 26.5719C158.451 26.1164 161.267 24.7666 162.905 20.1908C163.213 19.309 163.314 19.0344 163.948 19.0344C164.076 19.0376 164.204 19.0508 164.33 19.0739C164.738 19.1842 165.245 19.4254 165.245 20.0494V20.0536Z" fill="#212B2B"/>
<path d="M127.001 16.9113C126.097 16.9113 125.887 17.4084 125.887 17.9304V19.351H124.743C124.051 19.351 123.629 19.6671 123.629 20.3909C123.629 21.3539 124.419 21.4101 124.743 21.4101H125.878V23.7666C125.878 24.6901 126.517 24.7857 127.05 24.7857C127.81 24.7857 128.115 24.401 128.115 23.7666V17.9221C128.129 17.1733 127.693 16.9113 127.001 16.9113Z" fill="#212B2B"/>
<path d="M135.582 19.3505C135.452 19.3505 135.326 19.4011 135.234 19.4912C135.142 19.5813 135.09 19.7036 135.09 19.831V20.9375C135.091 21.0647 135.143 21.1866 135.235 21.2766C135.327 21.3666 135.452 21.4174 135.582 21.4179C136.259 21.4179 136.698 21.0997 136.698 20.378C136.698 19.4046 135.889 19.3505 135.582 19.3505Z" fill="#212B2B"/>
<path d="M134.17 17.9176C134.17 17.146 133.744 16.8985 133.026 16.8985C132.11 16.8985 131.912 17.3789 131.912 17.9176V19.3507H129.782C129.578 19.3507 129.382 19.43 129.237 19.5712C129.092 19.7124 129.011 19.9039 129.011 20.1036V20.6735C129.011 20.8731 129.092 21.0647 129.237 21.2059C129.382 21.3471 129.578 21.4264 129.782 21.4264H131.912V22.8324C131.912 24.1968 131.644 24.8582 131.273 25.2846C130.285 26.4285 128.734 26.676 127.652 26.8424C127.301 26.8965 126.664 27.0213 126.664 27.7388C126.664 27.9302 126.749 28.9514 127.808 28.9514C128.415 28.9514 129.77 28.6748 131.003 28.1091C133.827 26.8278 134.178 24.7188 134.178 22.8594L134.17 17.9176Z" fill="#212B2B"/>
<path d="M149.492 18.365L145.233 17.3251C145.203 17.3167 145.172 17.3125 145.141 17.3126H139.999C139.756 17.3132 139.522 17.408 139.349 17.5764C139.177 17.7448 139.08 17.973 139.079 18.2111V26.826C139.08 27.0691 139.179 27.3021 139.355 27.474C139.531 27.6459 139.77 27.7427 140.019 27.7433H145.043C145.078 27.7439 145.113 27.7488 145.147 27.7578L149.26 28.9205C149.379 28.9552 149.505 28.9626 149.627 28.9419C149.75 28.9212 149.865 28.8731 149.966 28.8013C150.066 28.7296 150.147 28.6361 150.204 28.5283C150.261 28.4205 150.292 28.3013 150.293 28.18V19.3052C150.283 18.962 149.833 18.4524 149.492 18.365ZM143.608 25.7611C143.608 25.8178 143.596 25.874 143.574 25.9264C143.551 25.9787 143.519 26.0263 143.478 26.0663C143.436 26.1063 143.388 26.138 143.334 26.1595C143.28 26.181 143.223 26.1919 143.165 26.1917H141.081C141.023 26.1919 140.966 26.181 140.912 26.1594C140.859 26.1379 140.81 26.1062 140.769 26.0662C140.728 26.0261 140.696 25.9786 140.674 25.9262C140.651 25.8738 140.64 25.8177 140.641 25.7611V19.2781C140.641 19.1639 140.687 19.0544 140.77 18.9737C140.852 18.8929 140.965 18.8476 141.081 18.8476H143.165C143.282 18.8476 143.394 18.8929 143.477 18.9736C143.56 19.0542 143.607 19.1637 143.608 19.2781V25.7611ZM148.881 24.2719C148.744 24.2949 148.602 24.2761 148.476 24.2179C148.349 24.1598 148.244 24.0651 148.175 23.9468C148.105 23.8285 148.075 23.6921 148.087 23.5563C148.1 23.4204 148.155 23.2916 148.245 23.1873C148.335 23.0829 148.455 23.0081 148.59 22.9729C148.725 22.9377 148.868 22.9438 148.999 22.9905C149.13 23.0371 149.244 23.122 149.324 23.2336C149.404 23.3453 149.448 23.4783 149.448 23.6147C149.46 23.7749 149.408 23.9334 149.302 24.0563C149.196 24.1792 149.045 24.2566 148.881 24.2719Z" fill="#00D3D3"/>
<path d="M75.1669 21.4037H73.0988C72.9353 21.4036 72.7784 21.4665 72.662 21.5786C72.5456 21.6907 72.4791 21.843 72.4768 22.0027L72.464 22.8346C72.4618 22.9158 72.4762 22.9965 72.5064 23.0721C72.5366 23.1478 72.5821 23.2167 72.6401 23.2749C72.698 23.333 72.7674 23.3793 72.844 23.4108C72.9206 23.4424 73.0029 23.4586 73.086 23.4586H75.1669C75.4353 23.4586 76.1957 23.444 76.1957 22.4186C76.1957 21.3933 75.3991 21.4037 75.1669 21.4037Z" fill="#212B2B"/>
<path d="M68.4343 22.8575L68.447 22.0089C68.4484 21.9299 68.4337 21.8514 68.4038 21.7781C68.3738 21.7047 68.3291 21.6379 68.2724 21.5815C68.2157 21.5252 68.1481 21.4805 68.0735 21.4499C67.9989 21.4194 67.9188 21.4036 67.8379 21.4037H64.8219C64.5386 21.4037 63.7782 21.4037 63.7782 22.4249C63.7782 23.4461 64.5684 23.444 64.8219 23.444H67.8251C67.9852 23.444 68.1389 23.3825 68.2529 23.2727C68.3668 23.163 68.432 23.0138 68.4343 22.8575Z" fill="#212B2B"/>
<path d="M69.9614 20.5217C69.7959 20.5328 69.6408 20.605 69.5277 20.7235C69.4146 20.8421 69.3519 20.9982 69.3523 21.1603L69.3097 23.4481C69.1691 25.2805 68.3214 26.2185 65.5972 26.8238C65.1456 26.934 64.5961 27.0858 64.5961 27.7202C64.5961 27.7889 64.6238 28.9473 65.725 28.9473C66.2745 28.9473 67.5738 28.6437 68.7452 28.0239C71.2287 26.7011 71.4545 24.5775 71.5674 23.4481L71.61 21.0708C71.6099 20.9797 71.5899 20.8897 71.5513 20.8068C71.5127 20.7239 71.4565 20.6499 71.3864 20.5899C71.3162 20.5298 71.2338 20.4851 71.1445 20.4587C71.0553 20.4322 70.9613 20.4246 70.8688 20.4365C70.6025 20.4656 70.2873 20.4989 69.9614 20.5217Z" fill="#212B2B"/>
<path d="M73.7974 17.0895C73.5993 17.0895 73.1584 17.1873 72.0615 17.4202C69.9869 17.8757 66.8964 18.0546 65.8102 18.0692C65.2308 18.0816 64.6089 18.1378 64.6089 18.9926C64.6089 20.0534 65.4715 20.0534 65.823 20.0534C67.0026 20.0421 68.1807 19.9685 69.3522 19.8329L71.6099 19.5708C71.8911 19.5292 73.5141 19.3088 74.0934 19.1299C74.4321 19.0197 74.8282 18.8824 74.8282 18.2064C74.8282 17.8903 74.6579 17.0895 73.7974 17.0895Z" fill="#212B2B"/>
</svg>
