<svg width="24" height="119" viewBox="0 0 24 119" fill="none" xmlns="http://www.w3.org/2000/svg">
<path d="M0 4C0 1.79086 1.79086 0 4 0H24V119H4C1.79086 119 0 117.209 0 115V4Z" fill="#C7C7C7" fill-opacity="0.37"/>
<path d="M10.9 51.65C10.0333 50.7833 8.73333 50.7833 7.86667 51.65C7 52.5167 7 53.8167 7.86667 54.6833L12.6333 59.6667L7.65 64.65C7.21667 65.0833 7 65.5167 7 66.1667C7 67.4667 7.86667 68.3333 9.16667 68.3333C9.81667 68.3333 10.25 68.1167 10.6833 67.6833L17.1833 61.1833C18.05 60.3167 18.05 59.0167 17.1833 58.15L10.9 51.65Z" fill="white"/>
</svg>
